<svg id="Layer_1" data-name="Layer 1" xmlns="http://www.w3.org/2000/svg" viewBox="0 0 997.42 723.96"><defs><style>.cls-1{fill:#2cb3fb;}.cls-2{fill:#2db2fb;}.cls-3{fill:#151922;}.cls-4{fill:#2eb0f9;}.cls-5{fill:#131822;}.cls-6{fill:#161b23;}.cls-7{fill:#161a23;}.cls-8{fill:#171d26;}.cls-9{fill:#30aef6;}.cls-10{fill:#19212a;}.cls-11{fill:#161a24;}.cls-12{fill:#171c24;}.cls-13{fill:#181e26;}.cls-14{fill:#1a1c2a;}.cls-15{fill:#32b0f2;}.cls-16{fill:#36ace9;}.cls-17{fill:#3ba9d7;}</style></defs><title>freelancer</title><path class="cls-1" d="M989.91,248.05c18.47,0,29.86.87,41.09-.17,26.25-2.45,35.25,9.25,30.59,34.61-8.8,47.92-15.13,96.39-26.14,143.76-13.13,56.53-67.42,80.15-101,120.55-1,1.17-3.24,2.67-4.12,2.27-37-16.89-51.84-56.57-81.73-81-15.38-12.56-11.61-27.2-2.71-43.54,22.55-41.39,45.4-82.85,64.16-126C927.55,258.33,947.15,228.37,989.91,248.05Z" transform="translate(-486.64 -168.74)"/><path class="cls-2" d="M918.76,243.27l-101,191.47-191-206.27Z" transform="translate(-486.64 -168.74)"/><path class="cls-3" d="M1365.85,811.16c5.93,33.86-22.67,22.91-43.58,24.92-9.45.91-26.63-7.84-26.36,10.28.21,13.89,16.41,11,26.69,14.43s28.38-15.89,30.14,7.45-20.56,20.81-34.5,22.58c-22.65,2.88-48.89,3.21-58.36-22.63-11.13-30.36-6.47-61.89,16.59-86.29,17.83-18.86,41.3-24.81,66.6-15.61C1360.82,772.75,1366.35,787.34,1365.85,811.16Z" transform="translate(-486.64 -168.74)"/><path class="cls-4" d="M836.69,491.38c84,71.71,83.85,71.53,13.92,141.84-18,18.06-34.41,37.67-59.87,50.06C805.61,621.21,820.47,559.13,836.69,491.38Z" transform="translate(-486.64 -168.74)"/><path class="cls-5" d="M992.79,804.62c-2.09-2.7-3.45-5.55-5.68-7.14-13-9.23-38.13,10.8-42.6-14.43-3.1-17.46,14.43-17.23,27.68-18.12,24.32-1.63,55-6,58.93,24.76,3.71,29.39,1,65.67-13.8,89.55-12.63,20.41-48.59,7.28-74,8.49-17.39.83-20.78-16.79-19.9-32.67,1.5-27.09,20.68-34.15,42.37-38.52C975.65,814.55,989.29,820.87,992.79,804.62Z" transform="translate(-486.64 -168.74)"/><path class="cls-6" d="M791.58,844.49c8.69,17.36,22.15,15,34.79,15.94,8.16.64,19.9-10.4,24.07,4.75s-8.06,20.05-18.91,22.81c-25.62,6.52-52.21,9.76-69.53-16-20.35-30.33-6.72-60.12,10.27-85.4,15.61-23.24,41-30,68.28-19.76,24,9,28,28.82,25.8,51.54-2.58,27-23.45,14.34-37,17.25C817.59,838.1,803.83,830.71,791.58,844.49Z" transform="translate(-486.64 -168.74)"/><path class="cls-7" d="M694.1,892.09c-29.5-.61-52.68-6.27-57.25-33.26-5.26-31.07-.11-61.83,27.91-82.17,21-15.25,44.47-19.13,67.42-4.31,17.64,11.39,15.59,29.42,13,47.6-3.37,23.91-21.72,12.12-33.72,15.92-12.22,3.87-34.35-10.73-35.64,10.09-1.42,22.92,22.91,6.19,34.16,13.2,7.09,4.41,26.33-8.65,21.75,12.36C726.84,894,703.88,886.46,694.1,892.09Z" transform="translate(-486.64 -168.74)"/><path class="cls-8" d="M1109.89,855.61c1-7.82,1.37-19.38,4.36-30.2,3.63-13.17,9.53-27.37-10.73-28.95-16.32-1.28-18.19,12.39-21.62,26.15-5.9,23.63,6.17,68.94-29.05,63.53-36.45-5.59-7.91-44.85-6.59-67.46,2.74-47.27,42.79-68.95,89.27-54.08,15.88,5.07,24.16,15.46,21.88,32.73-3,22.47-5.81,45-9.59,67.34-2.54,15.06-7.61,30.09-27.29,26C1101.12,886.63,1110.43,870.76,1109.89,855.61Z" transform="translate(-486.64 -168.74)"/><path class="cls-9" d="M1298,170.31c-59.36,16.58-107.11,25.05-150.8,43.4-49,20.55-78.55,9.09-98.61-43.4Z" transform="translate(-486.64 -168.74)"/><path class="cls-10" d="M487.47,855.87c4.87-34.35,8.08-66.81,14.46-98.62,4.41-22,17-38.93,42.71-38.7,9.79.09,25.88,7.85,20.4,13-19,17.84-5.42,51-10.22,53.47-34.64,17.9-21.06,51.15-29.93,76.56-4.25,12.17-.76,33.2-23.9,28.31C479.14,885.28,489.24,866.93,487.47,855.87Z" transform="translate(-486.64 -168.74)"/><path class="cls-11" d="M1165.29,839.21c2.7-51,27.86-80.35,67-76.34,9.42,1,24.8-2.16,24.2,15.89-.38,11.5-6.53,18.55-18.3,17-27.83-3.65-31.68,16.93-35.23,36-4.19,22.6,7.94,27.87,28.26,24.89,6.38-.93,9.88,7.93,8.86,14.48-1.6,10.24-7.41,16.93-18.31,19.83C1189.76,899.48,1163.36,875.62,1165.29,839.21Z" transform="translate(-486.64 -168.74)"/><path class="cls-12" d="M929,748.13c-7.18,41.46-14.83,82.85-21.3,124.42-2.6,16.73-13.72,14.86-24.92,14.6C869.68,886.83,868,879.89,870,868q10.11-59.84,18.37-120c2.12-15.29,8.55-23.42,24.75-23C930,725.46,931.16,734.82,929,748.13Z" transform="translate(-486.64 -168.74)"/><path class="cls-13" d="M608.71,769.15c10.72,2,26.87-14.66,31.2,5.05,2.88,13.16-10.51,17.95-23.84,23.48-22.31,9.26-17,35.35-19.64,55.16-2.45,18.16-1.55,39.25-28,33.47-25.21-5.51-10-26.22-9.87-40,.17-14.27,6.14-28.41,6.86-42.75C566.89,774.41,574.38,755.15,608.71,769.15Z" transform="translate(-486.64 -168.74)"/><path class="cls-14" d="M1420.54,776.62c6.28,34.48-10.6,64.68-10.69,96.89,0,9.36-6,17.77-18.68,15.59-12.23-2.1-21.18-5.82-18.91-21.35C1377.5,831.91,1378.46,794,1420.54,776.62Z" transform="translate(-486.64 -168.74)"/><path class="cls-15" d="M959.13,225.69c16.85-28.77,39-41.59,60.22-56.95,11.27,18.14,29,31.33,31.37,56.95Z" transform="translate(-486.64 -168.74)"/><path class="cls-16" d="M880,221.49c-33.39-1.87-57.33-4-81.28-4.3-18-.25-31.75-5.64-38.63-23.27-2.19-5.62-3.13-11.74-4.64-17.64,5.92.1,12.34-1.29,17.69.53C806.41,188.08,840.6,197.18,880,221.49Z" transform="translate(-486.64 -168.74)"/><path class="cls-17" d="M1484.06,769.84c-15.56,8.17-24,29.54-44.6,21.87-1.39-.52-1.36-8.84.13-12.7C1449.06,754.35,1468.63,768.74,1484.06,769.84Z" transform="translate(-486.64 -168.74)"/></svg>