<!-- Generator: Adobe Illustrator 23.1.0, SVG Export Plug-In  -->
<svg version="1.1" xmlns="http://www.w3.org/2000/svg" xmlns:xlink="http://www.w3.org/1999/xlink" x="0px" y="0px"
	 width="1953.464px" height="1421.33px" viewBox="0 0 1953.464 1421.33" style="enable-background:new 0 0 1953.464 1421.33;"
	 xml:space="preserve">
<style type="text/css">
	.st0{fill:#FFFFFF;stroke:#020202;stroke-width:40;stroke-miterlimit:10;}
</style>
<defs>
</defs>
<g>
	<path class="st0" d="M1274.21,31.427c-4.95-0.41-8.6-0.91-12.26-0.98c-119.37-2.14-238.74-4.3-358.12-6.31
		c-82.31-1.38-164.63-2.32-246.94-3.84c-62.99-1.17-125.66,0.48-187.03,16.85c-142.69,38.06-248.98,125.59-327.9,247.16
		C40.11,441.167,6,614.706,25.03,799.386c13.38,129.82,54.69,250.44,130.59,356.94c96.3,135.14,225.52,219.02,393.41,233.75
		c66.84,5.86,134.31,5.09,201.51,6.18c130.08,2.1,260.18,3.27,390.27,5.06c29.59,0.41,39.8-8.71,40.29-38.63
		c2.18-135.09,4.23-270.17,6.35-405.26c0.76-48.39,1.72-96.77,2.33-145.16c1-79.19,2.02-158.39,2.49-237.59
		c0.13-21.03-9.6-30.25-31-32.36c-5.62-0.55-11.26-1.14-16.9-1.21c-141.41-1.73-282.81-3.47-424.22-5.01
		c-29.37-0.32-38.99,8.66-39.49,37.57c-1.54,89.23-2.83,178.47-3.78,267.71c-0.3,28.57,8.53,37.4,36.84,38
		c49.01,1.04,98.05,0.93,147.03,2.61c24.97,0.86,33.5,10.86,33.51,35.63c0.01,31.43-0.63,62.86-1.16,94.28
		c-0.56,33.13-10.19,42.3-43.47,41.71c-59.06-1.04-118.12-1.93-177.17-3.2c-121.99-2.63-219.25-69.58-260.47-182.61
		c-33.52-91.92-35.58-186-5.63-279.22c49.77-154.96,146.42-224.12,308.27-222.21c171.56,2.02,343.11,5.01,514.66,7.35
		c30.48,0.42,40.65-10.19,41.16-40.48c1.21-71,2.64-142,3.68-213C1274.56,90.867,1274.21,61.476,1274.21,31.427z"/>
	<path d="M1893.65,98.987c-100.54,166.41-201.07,332.81-301.58,499.18c10.14,14.05,18.01,12.58,26.04-0.78
		c100.32-166.88,200.81-333.66,301.12-500.55c7.92-13.18,4.62-19.13-11.5-19.84c-18.83-0.83-37.72-0.34-56.59-0.24
		c-66,0.37-132.02,0.42-198,1.81c-7.72,0.16-18.33,5.93-22.46,12.39c-72.75,113.76-146.04,227.21-216.23,342.54
		c-32.14,52.82-34.61,111.05-1.29,164.84c85.66,138.29,172.83,275.66,260.47,412.71c70.06,109.56,141.72,218.1,212.64,327.1
		c2.7,4.15,5.16,8.46,9.54,15.67c-7.9,0.6-13.64,1.41-19.38,1.42c-74.83,0.06-149.66,0.49-224.47-0.68
		c-8.61-0.14-20.34-7.3-25.11-14.74c-49.78-77.73-98.31-156.25-147.44-234.39c-20.39-32.44-40.38-65.21-62.54-96.42
		c-10.42-14.68-25.53-26.02-38.51-38.87c-1.57,1.18-3.13,2.37-4.7,3.55c0-7.9,0-15.79,0-25.68c22.82-2.68,40.27,7.97,52.45,25.06
		c26.22,36.79,51.42,74.37,75.52,112.58c46.9,74.35,92.95,149.25,138.89,224.19c7.78,12.69,17.23,17.67,32.28,17.45
		c54.63-0.8,109.27-0.31,169.17-0.31c-7.56-12-12.58-20.1-17.73-28.12c-134.79-209.82-269.66-419.59-404.28-629.52
		c-12.19-19.01-23.23-38.81-34.05-58.65c-34.45-63.17-33.54-128.25,1.49-188.93c50.52-87.52,106.2-172.07,159.98-257.69
		c19.38-30.85,39.91-60.98,59.4-91.76c10.37-16.39,23.99-23.66,43.8-23.51c86.14,0.65,172.3,0.17,258.44,0.33
		c39.77,0.08,55.98,27.78,35.67,61.63c-100.52,167.5-201.27,334.86-302.06,502.2c-13.27,22.03-26.06,27.96-46.33,22.75
		c-30.73-7.9-41.51-31.44-25.68-58.95c18.79-32.66,38.81-64.62,58.33-96.85c68.65-113.37,137.33-226.72,205.96-340.09
		c2.22-3.66,4.08-7.53,7.17-13.27c-6.08-0.79-10.62-1.87-15.17-1.89c-47.79-0.12-95.58,0.26-143.37-0.31
		c-12.16-0.15-19.68,4.09-26.1,14.24c-64.85,102.43-130.73,204.2-194.83,307.1c-28.96,46.49-29.46,94.67,0.92,142.01
		c155.05,241.6,309.93,483.3,464.85,724.98c6.44,10.05,13.36,19.86,18.91,30.39c15.39,29.17-0.99,57.86-33.73,58.01
		c-93.69,0.43-187.39-0.02-281.08,0.3c-19.38,0.07-31.46-9.51-40.97-25.09c-57.25-93.79-114.38-187.67-172.38-280.99
		c-12.35-19.88-29.01-37.05-41.87-56.65c-4.45-6.78-3.41-17.16-5-26.6c26.33-2.49,38.41,12.5,48.53,29.64
		c29.68,50.3,58.2,101.31,88.66,151.13c33.74,55.19,69.32,109.24,103.62,164.09c7.22,11.54,16.36,15.57,29.61,15.57
		c84.87,0.05,169.74,0.66,254.61,1.08c3.14,0.02,6.31,0.18,9.43-0.09c17.61-1.54,21.01-7.8,11.24-22.98
		c-24.84-38.55-50.53-76.56-75.28-115.16c-130.2-203.07-259.76-406.55-390.64-609.18c-29.53-45.73-48.22-92.49-34.47-147.23
		c3.77-15.02,8.94-30.51,17.11-43.48c69.28-110.01,139.27-219.58,209.67-328.88c3.66-5.69,12.9-11,19.58-11.04
		c74.81-0.49,149.63,0.08,224.45,0.45C1889.34,95.936,1890.32,97.017,1893.65,98.987z"/>
</g>
</svg>